<svg width="16" height="17" viewBox="0 0 16 17" fill="none" xmlns="http://www.w3.org/2000/svg">
<g clip-path="url(#clip0)">
<path d="M3.99991 0.239258C3.6843 0.239258 3.42847 0.495095 3.42847 0.810697V1.95354H4.57131V0.810697C4.57131 0.495095 4.31548 0.239258 3.99991 0.239258Z" fill="#ADADAD"/>
<path d="M12 0.239258C11.6844 0.239258 11.4286 0.495095 11.4286 0.810697V1.95354H12.5714V0.810697C12.5715 0.495095 12.3156 0.239258 12 0.239258Z" fill="#ADADAD"/>
<path d="M14.2857 1.95355H12.5714V4.23928C12.5714 4.55488 12.3156 4.81072 12 4.81072C11.6844 4.81072 11.4286 4.55488 11.4286 4.23928V1.95355H4.57141V4.23928C4.57141 4.55488 4.31558 4.81072 3.99997 4.81072C3.68437 4.81072 3.42854 4.55488 3.42854 4.23928V1.95355H1.71428C0.767511 1.95355 0 2.72106 0 3.66784V14.525C0 15.4718 0.767511 16.2393 1.71428 16.2393H14.2857C15.2325 16.2393 16 15.4718 16 14.525V3.66784C16 2.72106 15.2325 1.95355 14.2857 1.95355ZM14.8571 14.525C14.8571 14.8406 14.6013 15.0964 14.2857 15.0964H1.71428C1.39868 15.0964 1.14285 14.8406 1.14285 14.525V7.09641H14.8571V14.525Z" fill="#ADADAD"/>
<path d="M4.57146 8.23923H3.42862C3.11301 8.23923 2.85718 8.49506 2.85718 8.81067C2.85718 9.12627 3.11301 9.38211 3.42862 9.38211H4.57146C4.88706 9.38211 5.1429 9.12627 5.1429 8.81067C5.1429 8.49506 4.88706 8.23923 4.57146 8.23923Z" fill="#ADADAD"/>
<path d="M8.57146 8.23923H7.42862C7.11301 8.23923 6.85718 8.49506 6.85718 8.81067C6.85718 9.12627 7.11301 9.38211 7.42862 9.38211H8.57146C8.88706 9.38211 9.1429 9.12627 9.1429 8.81067C9.1429 8.49506 8.88706 8.23923 8.57146 8.23923Z" fill="#ADADAD"/>
<path d="M12.5715 8.23923H11.4286C11.113 8.23923 10.8572 8.49506 10.8572 8.81067C10.8572 9.12627 11.113 9.38211 11.4286 9.38211H12.5715C12.8871 9.38211 13.1429 9.12627 13.1429 8.81067C13.1429 8.49506 12.887 8.23923 12.5715 8.23923Z" fill="#ADADAD"/>
<path d="M4.57146 10.525H3.42862C3.11301 10.525 2.85718 10.7808 2.85718 11.0964C2.85718 11.412 3.11301 11.6678 3.42862 11.6678H4.57146C4.88706 11.6678 5.1429 11.412 5.1429 11.0964C5.1429 10.7808 4.88706 10.525 4.57146 10.525Z" fill="#ADADAD"/>
<path d="M8.57146 10.525H7.42862C7.11301 10.525 6.85718 10.7808 6.85718 11.0964C6.85718 11.412 7.11301 11.6678 7.42862 11.6678H8.57146C8.88706 11.6678 9.1429 11.412 9.1429 11.0964C9.1429 10.7808 8.88706 10.525 8.57146 10.525Z" fill="#ADADAD"/>
<path d="M12.5715 10.525H11.4286C11.113 10.525 10.8572 10.7808 10.8572 11.0964C10.8572 11.412 11.113 11.6678 11.4286 11.6678H12.5715C12.8871 11.6678 13.1429 11.412 13.1429 11.0964C13.1429 10.7808 12.887 10.525 12.5715 10.525Z" fill="#ADADAD"/>
<path d="M4.57146 12.8107H3.42862C3.11301 12.8107 2.85718 13.0665 2.85718 13.3821C2.85718 13.6977 3.11301 13.9535 3.42862 13.9535H4.57146C4.88706 13.9535 5.1429 13.6977 5.1429 13.3821C5.1429 13.0665 4.88706 12.8107 4.57146 12.8107Z" fill="#ADADAD"/>
<path d="M8.57146 12.8107H7.42862C7.11301 12.8107 6.85718 13.0665 6.85718 13.3821C6.85718 13.6977 7.11301 13.9536 7.42862 13.9536H8.57146C8.88706 13.9536 9.1429 13.6977 9.1429 13.3821C9.1429 13.0665 8.88706 12.8107 8.57146 12.8107Z" fill="#ADADAD"/>
<path d="M12.5715 12.8107H11.4286C11.113 12.8107 10.8572 13.0665 10.8572 13.3821C10.8572 13.6977 11.113 13.9536 11.4286 13.9536H12.5715C12.8871 13.9536 13.1429 13.6977 13.1429 13.3821C13.1429 13.0665 12.887 12.8107 12.5715 12.8107Z" fill="#ADADAD"/>
</g>
<defs>
<clipPath id="clip0">
<rect width="16" height="16" fill="white" transform="translate(0 0.239258)"/>
</clipPath>
</defs>
</svg>
